<svg width="32" height="32" viewBox="0 0 32 32" fill="none" xmlns="http://www.w3.org/2000/svg">
  <!-- Background Circle -->
  <circle cx="16" cy="16" r="16" fill="#005AE0"/>
  
  <!-- Document -->
  <rect x="8" y="7" width="11" height="14" rx="1" fill="white"/>
  
  <!-- Document Lines -->
  <rect x="10" y="10" width="7" height="1" rx="0.5" fill="#E5E7EB"/>
  <rect x="10" y="12" width="5" height="1" rx="0.5" fill="#E5E7EB"/>
  <rect x="10" y="14" width="7" height="1" rx="0.5" fill="#E5E7EB"/>
  <rect x="10" y="16" width="4" height="1" rx="0.5" fill="#E5E7EB"/>
  
  <!-- Shield -->
  <path d="M20 9C20 9 22 8 24 9C24 9 24 11 24 13C24 16 22 18 20 19C18 18 16 16 16 13C16 11 16 9 16 9C18 8 20 9 20 9Z" fill="#00C896"/>
  
  <!-- Check Mark -->
  <path d="M18 12L19.5 13.5L22 11" stroke="white" stroke-width="1.5" stroke-linecap="round" stroke-linejoin="round"/>
</svg>
