<svg xmlns="http://www.w3.org/2000/svg" viewBox="0 0 32 32" fill="none">
  <defs>
    <!-- Main background gradient -->
    <linearGradient id="bgGrad" x1="0%" y1="0%" x2="100%" y2="100%">
      <stop offset="0%" style="stop-color:#1e3a8a;stop-opacity:1" />
      <stop offset="30%" style="stop-color:#1e40af;stop-opacity:1" />
      <stop offset="70%" style="stop-color:#3730a3;stop-opacity:1" />
      <stop offset="100%" style="stop-color:#581c87;stop-opacity:1" />
    </linearGradient>
    
    <!-- Document gradient -->
    <linearGradient id="docGrad" x1="0%" y1="0%" x2="100%" y2="100%">
      <stop offset="0%" style="stop-color:#ffffff;stop-opacity:1" />
      <stop offset="100%" style="stop-color:#f1f5f9;stop-opacity:1" />
    </linearGradient>
    
    <!-- Shield gradient -->
    <linearGradient id="shieldGrad" x1="0%" y1="0%" x2="100%" y2="100%">
      <stop offset="0%" style="stop-color:#fbbf24;stop-opacity:1" />
      <stop offset="100%" style="stop-color:#f59e0b;stop-opacity:1" />
    </linearGradient>
    
    <!-- Glow filter -->
    <filter id="glow">
      <feGaussianBlur stdDeviation="2" result="coloredBlur"/>
      <feMerge> 
        <feMergeNode in="coloredBlur"/>
        <feMergeNode in="SourceGraphic"/>
      </feMerge>
    </filter>
  </defs>
  
  <!-- Background circle with subtle shadow -->
  <circle cx="16" cy="16" r="14.5" fill="url(#bgGrad)" stroke="rgba(255,255,255,0.15)" stroke-width="1"/>
  <circle cx="16" cy="16" r="13" fill="none" stroke="rgba(255,255,255,0.08)" stroke-width="0.5"/>
  
  <!-- Legal document with folded corner -->
  <path d="M8 6 L8 26 Q8 27 9 27 L22 27 Q23 27 23 26 L23 11 L18 6 Z" fill="url(#docGrad)" stroke="rgba(30,64,175,0.2)" stroke-width="0.5"/>
  
  <!-- Folded corner -->
  <path d="M18 6 L18 10 Q18 11 19 11 L23 11" fill="none" stroke="rgba(30,64,175,0.3)" stroke-width="0.5"/>
  <path d="M18 6 L18 10 Q18 10.5 18.5 10.5 L22.5 10.5" fill="rgba(30,64,175,0.1)"/>
  
  <!-- Document content lines with varying lengths -->
  <rect x="10.5" y="9" width="9" height="0.8" rx="0.4" fill="#1e40af" opacity="0.8"/>
  <rect x="10.5" y="11.5" width="7.5" height="0.7" rx="0.35" fill="#3730a3" opacity="0.7"/>
  <rect x="10.5" y="14" width="8.5" height="0.7" rx="0.35" fill="#581c87" opacity="0.6"/>
  <rect x="10.5" y="16.5" width="6.5" height="0.6" rx="0.3" fill="#1e3a8a" opacity="0.5"/>
  <rect x="10.5" y="19" width="7" height="0.6" rx="0.3" fill="#1e40af" opacity="0.4"/>
  <rect x="10.5" y="21.5" width="5.5" height="0.6" rx="0.3" fill="#3730a3" opacity="0.3"/>
  
  <!-- Professional shield/security symbol -->
  <g filter="url(#glow)">
    <path d="M25.5 8.5 C25.5 7.5 24.8 6.8 24 6.8 C23.2 6.8 22.5 7.5 22.5 8.5 L22.5 13 C22.5 16.2 23.4 17.5 24 17.5 C24.6 17.5 25.5 16.2 25.5 13 Z" fill="url(#shieldGrad)" stroke="rgba(255,255,255,0.3)" stroke-width="0.3"/>
    
    <!-- Checkmark inside shield -->
    <path d="M23.2 11.8 L23.8 12.4 L25 11.2" fill="none" stroke="#ffffff" stroke-width="0.6" stroke-linecap="round" stroke-linejoin="round"/>
  </g>
  
  <!-- Legal scales icon (smaller and more refined) -->
  <g transform="translate(5.5, 23) scale(0.35)" fill="none" stroke="rgba(255,255,255,0.7)" stroke-width="1.2" stroke-linecap="round">
    <!-- Scale base -->
    <line x1="6" y1="8" x2="14" y2="8"/>
    <line x1="10" y1="2" x2="10" y2="12"/>
    
    <!-- Scale pans -->
    <circle cx="6" cy="10" r="2.5"/>
    <circle cx="14" cy="10" r="2.5"/>
    
    <!-- Scale chains -->
    <line x1="6" y1="8" x2="6" y2="7.5"/>
    <line x1="14" y1="8" x2="14" y2="7.5"/>
  </g>
  
  <!-- Subtle highlight on top -->
  <ellipse cx="16" cy="8" rx="8" ry="3" fill="rgba(255,255,255,0.08)"/>
</svg>
