<svg width="64" height="64" viewBox="0 0 64 64" fill="none" xmlns="http://www.w3.org/2000/svg">
  <!-- Background Circle -->
  <circle cx="32" cy="32" r="32" fill="#005AE0"/>
  
  <!-- Document Base -->
  <rect x="18" y="16" width="20" height="26" rx="2" fill="white"/>
  
  <!-- Document Lines -->
  <rect x="22" y="22" width="12" height="1.5" rx="0.75" fill="#E5E7EB"/>
  <rect x="22" y="26" width="10" height="1.5" rx="0.75" fill="#E5E7EB"/>
  <rect x="22" y="30" width="12" height="1.5" rx="0.75" fill="#E5E7EB"/>
  <rect x="22" y="34" width="8" height="1.5" rx="0.75" fill="#E5E7EB"/>
  
  <!-- Shield -->
  <path d="M40 20C40 20 44 18 48 20C48 20 48 24 48 28C48 34 44 38 40 40C36 38 32 34 32 28C32 24 32 20 32 20C36 18 40 20 40 20Z" fill="#00C896"/>
  
  <!-- Shield Check -->
  <path d="M36.5 28L39 30.5L43.5 26" stroke="white" stroke-width="2" stroke-linecap="round" stroke-linejoin="round"/>
  
  <!-- Document Corner Fold -->
  <path d="M33 16L38 16L38 21L33 16Z" fill="#F3F4F6"/>
  <path d="M33 16L38 21L38 16H33Z" fill="#E5E7EB"/>
</svg>
