<svg xmlns="http://www.w3.org/2000/svg" viewBox="0 0 32 32" fill="none">
  <defs>
    <!-- Blue gradient to match website logo -->
    <linearGradient id="bgGrad" x1="0%" y1="0%" x2="100%" y2="100%">
      <stop offset="0%" style="stop-color:#1e40af;stop-opacity:1" />
      <stop offset="50%" style="stop-color:#1e3a8a;stop-opacity:1" />
      <stop offset="100%" style="stop-color:#581c87;stop-opacity:1" />
    </linearGradient>
    
    <!-- Document gradient -->
    <linearGradient id="docGrad" x1="0%" y1="0%" x2="100%" y2="100%">
      <stop offset="0%" style="stop-color:#ffffff;stop-opacity:1" />
      <stop offset="100%" style="stop-color:#f8fafc;stop-opacity:1" />
    </linearGradient>
    
    <!-- Shield gradient -->
    <linearGradient id="shieldGrad" x1="0%" y1="0%" x2="100%" y2="100%">
      <stop offset="0%" style="stop-color:#fbbf24;stop-opacity:1" />
      <stop offset="100%" style="stop-color:#f59e0b;stop-opacity:1" />
    </linearGradient>
    
    <!-- Glow filter -->
    <filter id="glow">
      <feGaussianBlur stdDeviation="1.5" result="coloredBlur"/>
      <feMerge> 
        <feMergeNode in="coloredBlur"/>
        <feMergeNode in="SourceGraphic"/>
      </feMerge>
    </filter>
  </defs>
  
  <!-- Background rounded rectangle to match logo -->
  <rect x="2" y="2" width="28" height="28" rx="6" ry="6" fill="url(#bgGrad)" stroke="rgba(255,255,255,0.1)" stroke-width="0.5"/>
  
  <!-- Legal document with folded corner -->
  <path d="M9 7 L9 25 Q9 26 10 26 L21 26 Q22 26 22 25 L22 12 L17 7 Z" fill="url(#docGrad)" stroke="rgba(255,255,255,0.3)" stroke-width="0.3"/>
  
  <!-- Folded corner -->
  <path d="M17 7 L17 11 Q17 12 18 12 L22 12" fill="none" stroke="rgba(255,255,255,0.2)" stroke-width="0.3"/>
  <path d="M17 7 L17 11 Q17 11.5 17.5 11.5 L21.5 11.5" fill="rgba(255,255,255,0.1)"/>
  
  <!-- Document content lines -->
  <rect x="11" y="10" width="8" height="0.8" rx="0.4" fill="#1e40af" opacity="0.8"/>
  <rect x="11" y="12" width="6.5" height="0.6" rx="0.3" fill="#1e3a8a" opacity="0.7"/>
  <rect x="11" y="14" width="7.5" height="0.6" rx="0.3" fill="#581c87" opacity="0.6"/>
  <rect x="11" y="16" width="5.5" height="0.6" rx="0.3" fill="#1e40af" opacity="0.5"/>
  <rect x="11" y="18" width="6" height="0.6" rx="0.3" fill="#1e3a8a" opacity="0.4"/>
  <rect x="11" y="20" width="4.5" height="0.6" rx="0.3" fill="#581c87" opacity="0.3"/>
  
  <!-- Professional shield/security symbol -->
  <g filter="url(#glow)">
    <path d="M24.5 9 C24.5 8.2 23.9 7.6 23.2 7.6 C22.5 7.6 21.9 8.2 21.9 9 L21.9 13 C21.9 15.8 22.7 17 23.2 17 C23.7 17 24.5 15.8 24.5 13 Z" fill="url(#shieldGrad)" stroke="rgba(255,255,255,0.4)" stroke-width="0.2"/>
    
    <!-- Checkmark inside shield -->
    <path d="M22.3 11.5 L22.8 12 L24 10.8" fill="none" stroke="#ffffff" stroke-width="0.5" stroke-linecap="round" stroke-linejoin="round"/>
  </g>
  
  <!-- Subtle highlight -->
  <ellipse cx="16" cy="9" rx="6" ry="2" fill="rgba(255,255,255,0.06)"/>
</svg>
